<?xml version="1.0" standalone="no"?>
<!DOCTYPE svg PUBLIC "-//W3C//DTD SVG 20010904//EN"
 "http://www.w3.org/TR/2001/REC-SVG-20010904/DTD/svg10.dtd">
<svg version="1.0" xmlns="http://www.w3.org/2000/svg"
 width="486.000000pt" height="387.000000pt" viewBox="0 0 486.000000 387.000000"
 preserveAspectRatio="xMidYMid meet">

<g transform="translate(0.000000,387.000000) scale(0.100000,-0.100000)"
fill="#000000" stroke="none">
<path d="M2150 3619 c-347 -57 -644 -229 -859 -499 -223 -279 -323 -584 -308
-939 21 -511 352 -1034 1073 -1696 226 -208 284 -257 299 -253 27 6 308 261
516 468 290 289 503 553 636 788 30 54 58 102 63 107 21 27 91 212 114 303 38
152 50 260 43 397 -10 193 -52 385 -84 385 -9 0 -46 -28 -82 -62 -36 -35 -101
-92 -145 -127 -58 -47 -75 -65 -65 -72 8 -5 22 -9 31 -9 26 0 39 -58 45 -205
6 -129 -8 -268 -28 -280 -5 -3 -46 -14 -91 -24 l-82 -17 -33 -81 -34 -80 51
-73 c27 -41 50 -81 50 -90 0 -44 -169 -240 -272 -316 l-48 -36 -76 55 -76 55
-76 -36 c-43 -20 -80 -40 -83 -45 -3 -4 -12 -46 -18 -92 -7 -46 -18 -88 -24
-93 -35 -28 -264 -40 -392 -21 -88 13 -85 10 -105 136 -8 53 -17 83 -25 83 -7
0 -43 15 -79 34 l-67 33 -75 -53 c-41 -30 -77 -54 -80 -54 -14 0 -124 93 -180
151 -74 78 -148 185 -140 205 3 7 28 47 55 87 35 52 47 78 40 88 -5 8 -18 42
-29 75 l-21 62 -87 21 c-47 12 -92 27 -99 34 -25 24 -38 215 -25 339 7 62 17
117 23 124 5 6 31 15 57 19 113 16 130 24 145 69 8 22 22 57 30 76 l16 36 -55
79 c-30 43 -54 84 -54 90 0 21 100 155 159 214 63 63 141 121 164 121 8 0 46
-22 84 -50 l71 -49 80 36 80 37 19 95 18 96 65 11 c87 16 231 17 325 3 87 -13
85 -10 105 -127 8 -40 18 -76 24 -80 6 -4 44 -21 85 -39 l74 -32 69 50 c51 38
74 50 91 45 27 -6 163 -120 199 -166 24 -31 26 -32 54 -17 58 31 229 159 229
172 0 27 -120 157 -207 226 -286 226 -548 320 -883 318 -77 -1 -165 -5 -195
-10z"/>
<path d="M4223 3272 c-18 -9 -35 -23 -37 -29 -8 -20 6 -15 44 17 40 33 38 36
-7 12z"/>
<path d="M4146 3215 c-11 -8 -17 -17 -14 -20 2 -3 13 4 23 15 21 23 18 25 -9
5z"/>
<path d="M4095 3180 c-3 -5 -13 -6 -22 -3 -10 4 -14 2 -10 -4 4 -6 0 -14 -9
-17 -10 -4 -13 -2 -9 7 4 6 -1 3 -10 -8 -9 -11 -21 -19 -26 -17 -6 1 -8 -2 -4
-8 3 -5 2 -10 -3 -10 -5 0 -21 -12 -36 -26 -14 -15 -26 -24 -26 -20 0 3 -9 -3
-20 -14 -24 -24 -52 -27 -44 -5 4 8 3 15 0 15 -4 0 -62 -36 -129 -81 -67 -44
-113 -78 -102 -75 11 3 34 8 50 12 17 4 34 12 38 18 4 6 7 0 5 -14 -2 -20 -8
-24 -28 -22 -17 1 -21 -1 -11 -7 10 -6 10 -10 1 -16 -6 -4 -17 -2 -23 4 -6 6
-16 11 -21 11 -6 0 -2 -7 8 -15 20 -15 20 -15 0 -17 -10 0 -26 -1 -35 0 -9 1
-16 -5 -16 -12 0 -9 7 -12 16 -9 11 4 8 -1 -6 -16 -12 -11 -29 -21 -38 -21 -9
0 -14 -4 -11 -9 3 -5 -3 -11 -14 -14 -11 -3 -20 -1 -20 5 0 15 28 39 42 36 8
-2 12 5 10 18 -4 31 23 50 46 33 15 -13 16 -12 3 4 -7 9 -19 17 -26 17 -17 0
-47 -35 -38 -45 5 -4 0 -5 -11 -1 -13 4 -39 -7 -85 -38 -102 -69 -166 -122
-163 -135 1 -7 -2 -10 -8 -6 -16 10 -140 -87 -141 -110 0 -11 -3 -14 -6 -8 -3
9 -19 2 -48 -20 -44 -32 -58 -51 -30 -41 11 5 14 1 9 -12 -5 -18 -5 -18 9 -1
14 17 16 16 22 -13 l7 -32 19 21 c10 11 19 29 19 40 0 11 5 23 10 26 6 3 10
-1 10 -10 0 -13 4 -14 20 -5 12 7 17 16 13 27 -5 12 -2 15 10 10 19 -7 43 19
39 44 -2 9 2 20 9 24 8 5 9 1 4 -14 -3 -11 -3 -21 1 -21 12 0 64 53 64 64 0 6
-5 3 -11 -6 -12 -21 -29 -24 -29 -4 0 17 35 27 47 15 6 -6 17 -1 28 11 17 19
17 20 -6 30 -21 9 -19 10 14 6 42 -5 48 0 15 14 -18 7 -19 9 -5 9 9 1 17 8 17
18 0 14 2 14 21 -3 12 -10 22 -19 23 -18 0 0 20 13 43 27 24 15 47 27 52 27 6
0 54 34 108 76 54 42 161 123 238 180 77 58 148 111 158 119 9 8 21 15 26 15
5 0 14 7 21 15 8 9 9 15 2 15 -6 0 -13 -4 -17 -10z m-224 -150 c6 0 8 -4 5 -9
-3 -4 -18 -6 -33 -3 -23 4 -26 3 -17 -9 9 -11 8 -17 -4 -29 -14 -13 -15 -12
-9 3 3 9 2 19 -4 23 -14 8 22 35 39 29 8 -3 18 -5 23 -5z m-101 -54 c0 -11
-19 -15 -25 -6 -3 5 1 10 9 10 9 0 16 -2 16 -4z m-415 -296 c3 -5 1 -10 -4
-10 -6 0 -11 5 -11 10 0 6 2 10 4 10 3 0 8 -4 11 -10z m-205 -190 c0 -5 -2
-10 -4 -10 -3 0 -8 5 -11 10 -3 6 -1 10 4 10 6 0 11 -4 11 -10z"/>
<path d="M3938 3113 c-27 -14 -46 -28 -43 -31 6 -7 70 25 85 43 17 20 13 19
-42 -12z"/>
<path d="M1999 2792 c-32 -21 -77 -60 -107 -93 -21 -24 -21 -26 -3 -24 11 1
26 6 34 13 7 7 18 8 22 4 5 -4 5 -2 1 5 -4 7 -14 9 -24 6 -15 -6 -15 -5 -3 10
10 13 17 14 26 7 9 -8 15 -8 20 0 3 6 12 7 18 3 9 -5 9 -3 0 8 -15 18 1 41 23
32 10 -4 12 0 7 13 -5 13 -3 16 10 11 11 -4 17 -1 17 8 0 19 -8 18 -41 -3z"/>
<path d="M2088 2793 c7 -3 16 -2 19 1 4 3 -2 6 -13 5 -11 0 -14 -3 -6 -6z"/>
<path d="M1986 2751 c-3 -5 1 -11 9 -14 9 -4 12 -1 8 9 -6 16 -10 17 -17 5z"/>
<path d="M1780 2559 c0 -5 5 -7 10 -4 6 3 10 8 10 11 0 2 -4 4 -10 4 -5 0 -10
-5 -10 -11z"/>
<path d="M3015 2459 c-62 -47 -115 -101 -108 -112 3 -6 2 -7 -4 -4 -16 10 -57
-23 -44 -36 8 -8 20 -4 43 12 l33 22 -27 -25 c-31 -28 -34 -36 -14 -36 8 0 16
-3 19 -7 2 -5 2 -2 1 5 -4 14 5 15 25 3 12 -8 12 -12 2 -25 -8 -9 -20 -16 -28
-16 -8 0 -11 -5 -7 -11 4 -7 17 0 36 18 16 15 24 29 18 31 -5 2 -8 8 -4 13 3
5 -2 9 -10 9 -9 0 -16 4 -16 10 0 5 7 7 15 4 8 -4 26 1 39 10 24 15 28 30 13
53 -4 6 -2 15 4 18 5 4 8 13 5 21 -7 18 3 17 34 -2 14 -8 17 -13 8 -10 -10 3
-18 1 -18 -4 0 -13 21 -13 40 0 10 6 11 10 3 10 -21 0 -15 16 12 30 22 12 23
15 10 23 -9 5 -22 6 -30 3 -9 -3 -12 0 -8 10 7 19 5 18 -42 -17z"/>
<path d="M3035 2360 c3 -5 8 -10 11 -10 2 0 4 5 4 10 0 6 -5 10 -11 10 -5 0
-7 -4 -4 -10z"/>
<path d="M3234 2318 c-4 -6 -3 -9 2 -5 5 3 23 0 39 -7 27 -12 30 -18 33 -64 2
-32 -1 -52 -7 -52 -15 0 -14 -27 2 -33 10 -4 10 -6 0 -6 -7 -1 -13 -11 -13
-23 0 -19 2 -20 10 -8 7 11 10 0 8 -38 -1 -36 -6 -56 -17 -62 -13 -8 -12 -9 6
-10 19 0 22 7 28 75 4 41 4 109 0 151 -6 68 -9 76 -32 85 -32 12 -50 11 -59
-3z"/>
<path d="M2845 2279 c-4 -5 -14 -8 -22 -5 -18 7 -113 -75 -307 -266 -82 -82
-154 -148 -160 -148 -5 0 -18 7 -28 17 -26 23 -34 9 -8 -17 11 -11 18 -25 15
-30 -10 -17 -47 30 -41 53 3 14 -4 33 -20 54 -20 27 -30 32 -50 27 -15 -4 -24
-2 -24 6 0 7 7 10 15 6 24 -9 17 10 -10 28 -27 18 -42 20 -37 5 2 -10 -12 -12
-21 -2 -4 3 -1 13 6 21 10 13 9 15 -6 9 -10 -4 -21 -7 -24 -7 -3 0 0 -6 6 -14
24 -29 -9 -65 -39 -43 -13 9 -13 9 -2 -3 7 -8 17 -16 22 -16 6 -1 15 -2 21 -3
6 0 9 -10 6 -21 -3 -10 2 -25 10 -31 12 -10 13 -8 9 14 -2 15 -7 31 -11 37 -9
14 4 13 19 -2 27 -28 35 -52 19 -63 -12 -9 -11 -11 7 -12 14 -1 24 5 27 18 3
10 10 19 15 19 6 0 8 -10 4 -22 -3 -13 -6 -29 -6 -37 0 -8 -6 -11 -16 -7 -10
4 -14 1 -12 -6 3 -7 10 -13 16 -13 6 0 22 -10 37 -23 14 -12 31 -20 38 -17 7
4 4 0 -6 -8 -17 -14 -18 -17 -2 -44 9 -15 14 -20 11 -11 -4 14 0 17 19 16 13
-1 23 -6 22 -11 -4 -20 20 -16 31 5 11 21 12 21 7 2 -4 -14 0 -24 10 -28 9 -3
13 -2 10 4 -3 6 1 7 10 4 20 -8 0 -35 -24 -32 -9 2 -15 -3 -13 -11 1 -7 -3
-19 -9 -27 -6 -8 -8 -14 -5 -14 12 0 155 154 150 162 -3 4 11 18 30 30 20 13
38 29 41 36 2 7 0 10 -5 7 -5 -3 -18 -1 -27 4 -16 9 -16 10 4 11 16 0 21 4 17
15 -4 9 0 15 10 15 10 0 13 -6 10 -15 -12 -31 13 -13 66 47 60 67 69 81 47 72
-8 -3 -18 -1 -22 5 -7 12 15 23 48 25 12 1 26 11 33 23 6 13 13 21 16 18 3 -3
13 5 24 17 10 13 13 18 5 12 -17 -15 -51 -6 -44 12 3 8 2 22 -2 32 -13 30 -12
51 3 57 20 8 28 -3 14 -17 -24 -24 -11 -27 26 -6 49 28 47 27 34 40 -15 15
-16 32 -2 23 6 -3 10 -2 10 4 0 6 7 8 15 5 8 -4 15 -1 15 4 0 16 -18 24 -25
11z m-105 -204 c0 -8 -7 -15 -15 -15 -8 0 -15 7 -15 15 0 8 7 15 15 15 8 0 15
-7 15 -15z m-540 -85 c0 -5 -5 -10 -11 -10 -5 0 -7 -4 -4 -10 3 -5 2 -10 -3
-10 -6 0 -13 7 -16 16 -3 8 -2 12 4 9 6 -3 10 -1 10 4 0 6 5 11 10 11 6 0 10
-4 10 -10z m45 -50 c-3 -5 -11 -10 -16 -10 -6 0 -7 5 -4 10 3 6 11 10 16 10 6
0 7 -4 4 -10z m343 -15 c-3 -3 -9 2 -12 12 -6 14 -5 15 5 6 7 -7 10 -15 7 -18z
m-112 -42 c-10 -10 -19 5 -10 18 6 11 8 11 12 0 2 -7 1 -15 -2 -18z m-206 -3
c0 -5 -2 -10 -4 -10 -3 0 -8 5 -11 10 -3 6 -1 10 4 10 6 0 11 -4 11 -10z m219
-32 c-7 -13 -14 -18 -16 -11 -3 7 2 19 9 27 18 20 22 12 7 -16z m-225 -9 c-3
-5 -13 -9 -22 -8 -11 0 -12 2 -4 6 6 2 10 9 7 14 -4 5 1 6 9 3 9 -3 13 -10 10
-15z m186 11 c0 -5 -7 -10 -16 -10 -8 0 -12 5 -9 10 3 6 10 10 16 10 5 0 9 -4
9 -10z m60 -20 c0 -5 -4 -10 -10 -10 -5 0 -10 5 -10 10 0 6 5 10 10 10 6 0 10
-4 10 -10z m-24 -47 c-8 -9 -36 17 -36 33 0 10 7 7 21 -7 11 -11 18 -23 15
-26z m-46 -46 c0 -5 -7 -6 -16 -3 -9 3 -20 6 -25 6 -4 0 -6 7 -3 15 5 11 10
12 25 2 10 -6 19 -16 19 -20z"/>
<path d="M2845 2240 c3 -5 8 -10 11 -10 2 0 4 5 4 10 0 6 -5 10 -11 10 -5 0
-7 -4 -4 -10z"/>
<path d="M1880 2175 c15 -18 36 -19 46 -3 4 7 3 8 -4 4 -7 -4 -12 -2 -12 3 0
6 -10 11 -21 11 -18 0 -19 -2 -9 -15z"/>
<path d="M1947 2142 c-16 -7 -16 -9 3 -25 18 -15 24 -14 21 6 0 4 11 7 27 7
18 0 23 -3 14 -9 -9 -5 -3 -8 17 -9 39 -1 39 3 1 23 -31 16 -54 18 -83 7z"/>
<path d="M2090 2055 c0 -19 4 -35 9 -35 4 0 6 12 3 28 -5 24 -4 26 11 13 19
-15 23 -1 5 17 -20 20 -28 14 -28 -23z"/>
<path d="M3047 2000 c-9 -23 -27 -94 -27 -105 0 -5 7 3 15 19 8 15 15 36 15
45 0 10 5 7 14 -10 15 -29 19 -132 4 -123 -4 3 -8 2 -7 -3 3 -21 -14 -51 -27
-46 -8 3 -14 0 -14 -6 0 -6 -9 -11 -20 -11 -11 0 -20 5 -20 10 0 6 7 10 15 10
17 0 19 9 6 29 -6 9 -11 10 -15 2 -4 -6 -4 -11 1 -11 4 0 3 -4 -3 -8 -6 -4
-34 -41 -62 -83 -28 -42 -58 -83 -66 -92 -23 -22 -20 -30 7 -15 12 7 25 12 28
11 3 -1 5 8 5 20 -1 34 38 47 107 34 39 -8 56 -15 53 -24 -3 -7 0 -12 7 -10 7
1 11 -8 10 -23 -1 -14 1 -19 3 -12 7 16 28 16 21 -1 -2 -7 4 -23 14 -36 15
-18 20 -20 25 -8 3 8 -17 47 -46 89 l-52 75 25 49 c13 27 35 82 48 123 25 79
26 79 114 105 39 11 43 14 17 12 -17 -2 -35 -6 -39 -9 -11 -12 -43 -8 -43 6 0
6 -12 -3 -26 -20 -14 -18 -34 -33 -44 -33 -13 0 -22 10 -28 33 -6 21 -11 27
-15 17z m63 -69 c0 -6 -4 -13 -10 -16 -5 -3 -10 1 -10 9 0 9 5 16 10 16 6 0
10 -4 10 -9z m-70 -239 c0 -7 -4 -10 -10 -7 -5 3 -10 16 -10 28 0 18 2 19 10
7 5 -8 10 -21 10 -28z m-32 5 c5 -24 -15 -21 -21 4 -3 13 -1 19 6 16 7 -2 13
-11 15 -20z"/>
<path d="M3016 1865 c4 -8 11 -15 16 -15 6 0 5 6 -2 15 -7 8 -14 15 -16 15 -2
0 -1 -7 2 -15z"/>
<path d="M3000 1848 c0 -8 7 -21 15 -28 19 -16 19 -1 0 24 -12 16 -15 17 -15
4z"/>
<path d="M2940 1655 c0 -8 5 -15 10 -15 6 0 10 7 10 15 0 8 -4 15 -10 15 -5 0
-10 -7 -10 -15z"/>
<path d="M2787 1558 c-32 -26 -36 -33 -25 -46 11 -13 10 -15 -6 -9 -22 9 -59
-1 -51 -13 3 -4 -3 -7 -11 -6 -9 0 -18 -7 -19 -16 -4 -25 16 -22 45 4 13 13
29 23 35 24 5 0 16 2 23 2 6 1 11 5 10 10 -2 13 15 47 31 59 9 6 14 14 11 16
-3 3 -22 -8 -43 -25z"/>
<path d="M3090 1547 c0 -7 -10 -17 -22 -22 -17 -7 -23 -19 -24 -42 0 -25 -11
-44 -47 -80 l-48 -47 -34 18 c-19 11 -35 23 -35 28 0 4 -6 8 -13 8 -8 0 -22 9
-31 19 -20 22 -54 33 -62 20 -3 -5 -10 -7 -15 -3 -5 3 -7 10 -4 15 3 5 -1 6
-9 3 -9 -3 -12 -12 -9 -21 4 -11 2 -14 -5 -9 -8 5 -10 2 -6 -9 6 -14 9 -14 30
0 13 8 28 15 34 15 5 0 42 -23 81 -51 l71 -51 32 29 c45 41 95 95 114 123 18
25 24 70 10 70 -4 0 -8 -6 -8 -13z"/>
<path d="M2800 1520 c0 -5 5 -10 10 -10 6 0 10 5 10 10 0 6 -4 10 -10 10 -5 0
-10 -4 -10 -10z"/>
<path d="M2604 1445 c-17 -13 -17 -14 -2 -15 9 0 20 5 23 11 11 17 0 20 -21 4z"/>
<path d="M2526 1421 c-13 -5 -16 -10 -8 -15 6 -4 21 -2 33 5 17 8 23 8 29 -1
5 -7 13 -9 21 -5 9 6 8 10 -7 16 -10 4 -26 8 -34 8 -8 0 -24 -4 -34 -8z"/>
<path d="M2465 1400 c-8 -13 5 -13 25 0 13 8 13 10 -2 10 -9 0 -20 -4 -23 -10z"/>
<path d="M2680 1395 c-16 -19 0 -19 26 0 16 12 16 14 3 15 -9 0 -22 -7 -29
-15z"/>
<path d="M2388 1393 c7 -3 16 -2 19 1 4 3 -2 6 -13 5 -11 0 -14 -3 -6 -6z"/>
<path d="M2616 1379 c-10 -12 -25 -19 -35 -16 -10 2 -23 -4 -30 -14 -14 -23
-14 -23 53 2 39 14 53 24 49 35 -7 19 -15 18 -37 -7z"/>
<path d="M2170 1315 c0 -8 4 -15 10 -15 5 0 7 7 4 15 -4 8 -8 15 -10 15 -2 0
-4 -7 -4 -15z"/>
<path d="M2517 1309 c4 -13 8 -18 11 -10 2 7 -1 18 -6 23 -8 8 -9 4 -5 -13z"/>
<path d="M2182 1270 c0 -14 2 -19 5 -12 2 6 2 18 0 25 -3 6 -5 1 -5 -13z"/>
<path d="M2190 1214 c6 -14 10 -36 10 -50 0 -13 5 -24 11 -24 6 0 8 8 5 18 -2
9 -7 32 -11 50 -4 17 -11 32 -16 32 -5 0 -4 -11 1 -26z"/>
<path d="M2498 1184 c-5 -4 -8 -16 -8 -28 0 -14 3 -17 11 -9 6 6 9 19 7 28 -1
9 -6 13 -10 9z"/>
<path d="M2230 1138 c0 -4 51 -7 113 -7 130 2 124 6 -15 11 -54 2 -98 0 -98
-4z"/>
</g>
</svg>
